<svg xmlns="http://www.w3.org/2000/svg" viewBox="0 0 1024 1024">
  <defs>
    <radialGradient id="g1" cx="30%" cy="20%" r="75%">
      <stop offset="0" stop-color="#fff8d8"/>
      <stop offset="0.26" stop-color="#f5c76b"/>
      <stop offset="0.58" stop-color="#ff7a3d"/>
      <stop offset="1" stop-color="#19061f"/>
    </radialGradient>
    <linearGradient id="g2" x1="0" x2="1" y1="0" y2="1">
      <stop offset="0" stop-color="#6ee7ff"/>
      <stop offset="0.45" stop-color="#9b7cff"/>
      <stop offset="1" stop-color="#ff72c8"/>
    </linearGradient>
    <filter id="shadow" x="-20%" y="-20%" width="140%" height="140%">
      <feDropShadow dx="0" dy="24" stdDeviation="28" flood-color="#000" flood-opacity=".48"/>
    </filter>
  </defs>
  <rect width="1024" height="1024" rx="230" fill="#07040f"/>
  <circle cx="512" cy="424" r="372" fill="url(#g1)" opacity=".92"/>
  <circle cx="748" cy="220" r="160" fill="#6ee7ff" opacity=".16"/>
  <circle cx="248" cy="760" r="180" fill="#9b7cff" opacity=".18"/>
  <g filter="url(#shadow)">
    <rect x="286" y="216" width="282" height="404" rx="42" transform="rotate(-13 427 418)" fill="url(#g2)" stroke="rgba(255,255,255,.72)" stroke-width="16"/>
    <rect x="380" y="206" width="282" height="404" rx="42" transform="rotate(10 521 408)" fill="#111729" stroke="#f5c76b" stroke-width="16"/>
    <path d="M517 301 L587 441 L741 464 L630 573 L656 726 L517 654 L378 726 L404 573 L293 464 L447 441 Z" fill="#f5c76b" stroke="#fff4ba" stroke-width="14"/>
    <path d="M517 366 L557 447 L646 460 L582 523 L597 611 L517 569 L437 611 L452 523 L388 460 L477 447 Z" fill="#ff7a3d" opacity=".95"/>
  </g>
</svg>
