<svg xmlns="http://www.w3.org/2000/svg" viewBox="0 0 512 512">
  <defs><linearGradient id="g" x1="0" x2="1" y1="0" y2="1"><stop stop-color="#fff1a8"/><stop offset=".45" stop-color="#f5c76b"/><stop offset="1" stop-color="#7c3aed"/></linearGradient></defs>
  <rect width="512" height="512" rx="112" fill="#07040f"/>
  <circle cx="256" cy="232" r="150" fill="url(#g)" opacity=".95"/>
  <path d="M159 155h194a30 30 0 0 1 30 30v216a30 30 0 0 1-30 30H159a30 30 0 0 1-30-30V185a30 30 0 0 1 30-30Z" fill="#111827" opacity=".86"/>
  <path d="M180 184h152a22 22 0 0 1 22 22v174a22 22 0 0 1-22 22H180a22 22 0 0 1-22-22V206a22 22 0 0 1 22-22Z" fill="url(#g)"/>
  <text x="256" y="314" text-anchor="middle" font-size="114" font-family="Arial, sans-serif">⚔️</text>
</svg>