<svg xmlns="http://www.w3.org/2000/svg" viewBox="0 0 512 512">
  <defs>
    <radialGradient id="g1" cx="30%" cy="18%" r="70%">
      <stop offset="0%" stop-color="#fff4c2"/>
      <stop offset="38%" stop-color="#f5c76b"/>
      <stop offset="72%" stop-color="#8f5cff"/>
      <stop offset="100%" stop-color="#07040f"/>
    </radialGradient>
    <linearGradient id="g2" x1="0" x2="1" y1="0" y2="1">
      <stop offset="0" stop-color="#fff2b0"/>
      <stop offset=".45" stop-color="#ff8a3d"/>
      <stop offset="1" stop-color="#6ee7ff"/>
    </linearGradient>
    <filter id="s" x="-20%" y="-20%" width="140%" height="140%">
      <feDropShadow dx="0" dy="18" stdDeviation="18" flood-color="#000" flood-opacity=".45"/>
    </filter>
  </defs>
  <rect width="512" height="512" rx="112" fill="#07040f"/>
  <rect x="18" y="18" width="476" height="476" rx="98" fill="url(#g1)" opacity=".98"/>
  <circle cx="256" cy="254" r="162" fill="#07040f" opacity=".55"/>
  <g filter="url(#s)">
    <rect x="151" y="122" width="150" height="212" rx="28" fill="url(#g2)" transform="rotate(-13 226 228)" opacity=".92"/>
    <rect x="213" y="118" width="150" height="212" rx="28" fill="url(#g2)" transform="rotate(13 288 224)" opacity=".92"/>
    <rect x="181" y="96" width="150" height="236" rx="30" fill="#fff7d6" opacity=".96"/>
    <rect x="198" y="114" width="116" height="200" rx="22" fill="#111523"/>
    <path d="M256 142l35 65 72 13-51 51 10 72-66-32-66 32 10-72-51-51 72-13z" fill="#f5c76b"/>
    <path d="M256 153l27 50 55 10-39 39 8 55-51-25-51 25 8-55-39-39 55-10z" fill="#ff8a3d" opacity=".9"/>
  </g>
  <path d="M108 393c62 48 232 50 296 0" fill="none" stroke="#fff2b0" stroke-width="14" stroke-linecap="round" opacity=".8"/>
</svg>
